# File created by Blade
# Date/Time:  Tue Jan 27 19:23:16 2015
# Frame Rate: 120.000 fps
#------------------------------------------------------
:FULLY-SPECIFIED
:DEGREES
3284
root 2.754620 32.312912 0.356077 -3.920860 -2.773827 0.328115
Spine 3.127408 -6.549122 -0.312260
Head 16.724732 -17.942654 -7.998456
LeftShoulder -8.411485 -2.885492 24.477937
LeftArm -3.558339 39.671491 -101.987781
LeftForeArm 6.054128 -0.000000 14.501950
LeftHand 9.617711 -0.000000 -4.895650
LeftHandThumb1 -26.253704 0.000000 33.147579
RightShoulder -21.441424 -9.506548 -45.374250
RightArm -1.370181 48.410351 25.706431
RightForeArm 18.763114 -0.000000 106.132565
RightHand 26.642430 -0.000000 -9.701679
RightHandThumb1 -24.326973 -0.000000 -32.862282
LeftUpLeg 11.586330 6.051459 2.525741
LeftLeg 1.151983 -0.000000 -0.000000
LeftFoot -17.072512 11.912245 -24.583484
LeftToeBase 16.956995 -0.000000 -0.000000
RightUpLeg 8.852498 -4.416156 3.665114
RightLeg 0.922245 -0.000000 -0.000000
RightFoot -12.643336 -14.780315 12.902575
RightToeBase 11.720137 -0.000000 -0.000000
3285
root 2.751736 32.312940 0.349151 -3.923234 -2.825641 0.319647
Spine 3.157784 -6.570829 -0.370441
Head 16.721535 -17.924509 -7.976357
LeftShoulder -8.445266 -2.870310 24.460483
LeftArm -3.581194 39.669766 -101.996006
LeftForeArm 5.983999 -0.000000 14.513145
LeftHand 9.614622 -0.000000 -4.830362
LeftHandThumb1 -26.253704 0.000000 33.147579
RightShoulder -21.360166 -9.544116 -45.438982
RightArm -0.845852 46.639203 25.589848
RightForeArm 18.503126 -0.000000 105.650449
RightHand 26.484664 -0.000000 -9.193855
RightHandThumb1 -24.326973 -0.000000 -32.862282
LeftUpLeg 11.587793 6.081074 2.536697
LeftLeg 1.157762 -0.000000 -0.000000
LeftFoot -17.024241 11.941468 -24.464740
LeftToeBase 16.723892 -0.000000 -0.000000
RightUpLeg 8.829213 -4.373128 3.682584
RightLeg 0.938481 -0.000000 -0.000000
RightFoot -12.633437 -14.767997 12.929427
RightToeBase 11.673945 -0.000000 -0.000000
3286
root 2.751151 32.313053 0.343557 -3.934920 -2.885938 0.312731
Spine 3.201755 -6.559347 -0.425891
Head 16.734683 -17.860816 -7.925727
LeftShoulder -8.447189 -2.866934 24.458943
LeftArm -3.561479 39.521620 -102.019341
LeftForeArm 6.148502 -0.000000 14.429410
LeftHand 9.679721 -0.000000 -4.845967
LeftHandThumb1 -26.253704 0.000000 33.147579
RightShoulder -21.316972 -9.494120 -45.533973
RightArm -0.328056 44.664386 25.411295
RightForeArm 18.310468 0.000000 105.139188
RightHand 26.492077 0.000000 -9.134598
RightHandThumb1 -24.326973 -0.000000 -32.862282
LeftUpLeg 11.600450 6.168102 2.559616
LeftLeg 1.151755 -0.000000 -0.000000
LeftFoot -17.065367 11.907161 -24.566097
LeftToeBase 16.900433 -0.000000 -0.000000
RightUpLeg 8.832110 -4.316369 3.693653
RightLeg 0.925706 -0.000000 -0.000000
RightFoot -12.608168 -14.767628 12.915970
RightToeBase 11.699698 -0.000000 -0.000000
3287
root 2.748094 32.313238 0.336201 -3.937997 -2.954193 0.301521
Spine 3.224986 -6.551882 -0.487194
Head 16.729383 -17.902035 -7.922425
LeftShoulder -8.447799 -2.859010 24.462813
LeftArm -3.574445 39.449214 -102.050625
LeftForeArm 6.190512 -0.000000 14.374443
LeftHand 9.683343 -0.000000 -4.786609
LeftHandThumb1 -26.253704 0.000000 33.147579
RightShoulder -21.240636 -9.500465 -45.575153
RightArm 0.210899 42.696554 25.162679
RightForeArm 18.432793 -0.000000 104.607227
RightHand 26.431450 -0.000000 -9.054370
RightHandThumb1 -24.326973 -0.000000 -32.862282
LeftUpLeg 11.608536 6.217225 2.578278
LeftLeg 1.143306 -0.000000 -0.000000
LeftFoot -17.088021 11.909947 -24.611295
LeftToeBase 17.030454 -0.000000 -0.000000
RightUpLeg 8.811569 -4.274065 3.714906
RightLeg 0.932234 -0.000000 -0.000000
RightFoot -12.580232 -14.768954 12.890867
RightToeBase 11.681969 -0.000000 -0.000000
3288
root 2.745934 32.313323 0.328169 -3.931518 -3.027226 0.288620
Spine 3.240878 -6.529394 -0.527007
Head 16.722584 -17.897014 -7.921724
LeftShoulder -8.453871 -2.853935 24.439293
LeftArm -3.615771 39.500399 -102.062809
LeftForeArm 6.116868 -0.000000 14.435027
LeftHand 9.495368 0.000000 -4.758651
LeftHandThumb1 -26.253704 0.000000 33.147579
RightShoulder -21.161532 -9.440126 -45.677417
RightArm 0.664271 40.624384 24.872411
RightForeArm 18.717138 -0.000000 104.110963
RightHand 26.496356 0.000000 -8.814628
RightHandThumb1 -24.326973 -0.000000 -32.862282
LeftUpLeg 11.606898 6.239763 2.589388
LeftLeg 1.134324 -0.000000 -0.000000
LeftFoot -17.115945 11.944790 -24.641265
LeftToeBase 17.008910 -0.000000 -0.000000
RightUpLeg 8.779341 -4.257969 3.732211
RightLeg 0.939646 -0.000000 -0.000000
RightFoot -12.533515 -14.737416 12.842877
RightToeBase 11.697222 -0.000000 -0.000000
3289
root 2.743168 32.312999 0.321008 -3.932232 -3.105427 0.277201
Spine 3.259193 -6.515277 -0.575283
Head 16.745465 -17.872846 -7.905700
LeftShoulder -8.457254 -2.825045 24.435577
LeftArm -3.596961 39.524041 -102.077224
LeftForeArm 6.055243 0.000000 14.382951
LeftHand 9.521271 0.000000 -4.832097
LeftHandThumb1 -26.253704 0.000000 33.147579
RightShoulder -21.069572 -9.455938 -45.740084
RightArm 1.165196 38.544740 24.561180
RightForeArm 19.165394 -0.000000 103.593854
RightHand 26.525155 -0.000000 -9.052281
RightHandThumb1 -24.326973 -0.000000 -32.862282
LeftUpLeg 11.619948 6.291654 2.606314
LeftLeg 1.114891 -0.000000 -0.000000
LeftFoot -17.110590 11.974932 -24.629933
LeftToeBase 16.971250 -0.000000 -0.000000
RightUpLeg 8.754480 -4.227252 3.747725
RightLeg 0.952221 -0.000000 -0.000000
RightFoot -12.514188 -14.693069 12.834917
RightToeBase 11.684533 -0.000000 -0.000000
3290
root 2.739048 32.313032 0.313655 -3.930531 -3.187539 0.251465
Spine 3.280787 -6.480179 -0.608078
Head 16.734015 -17.897632 -7.906843
LeftShoulder -8.462714 -2.845028 24.430417
LeftArm -3.615841 39.577218 -102.122201
LeftForeArm 6.016450 -0.000000 14.315195
LeftHand 9.696727 -0.000000 -4.870196
LeftHandThumb1 -26.253704 0.000000 33.147579
RightShoulder -21.037767 -9.618200 -45.711773
RightArm 1.798145 36.538769 24.233830
RightForeArm 19.830658 0.000000 103.051651
RightHand 26.512042 -0.000000 -8.837644
RightHandThumb1 -24.326973 -0.000000 -32.862282
LeftUpLeg 11.635394 6.302130 2.629177
LeftLeg 1.089339 -0.000000 -0.000000
LeftFoot -17.147344 12.048939 -24.641380
LeftToeBase 16.942668 -0.000000 -0.000000
RightUpLeg 8.731224 -4.175555 3.785958
RightLeg 0.953190 -0.000000 -0.000000
RightFoot -12.472759 -14.691016 12.809994
RightToeBase 11.704747 -0.000000 -0.000000
3291
root 2.737880 32.312879 0.307520 -3.922185 -3.275188 0.236023
Spine 3.283997 -6.464875 -0.652287
Head 16.747955 -17.881218 -7.881648
LeftShoulder -8.475483 -2.857368 24.425481
LeftArm -3.712285 39.537356 -102.186199
LeftForeArm 6.048105 0.000000 14.375854
LeftHand 9.571300 -0.000000 -4.856999
LeftHandThumb1 -26.253704 0.000000 33.147579
RightShoulder -20.920290 -9.484243 -45.834058
RightArm 2.224764 34.220944 23.809113
RightForeArm 20.534714 -0.000000 102.516241
RightHand 26.689661 -0.000000 -8.580144
RightHandThumb1 -24.326973 -0.000000 -32.862282
LeftUpLeg 11.646647 6.373362 2.649439
LeftLeg 1.061683 -0.000000 -0.000000
LeftFoot -17.138547 12.058798 -24.626764
LeftToeBase 16.926512 -0.000000 -0.000000
RightUpLeg 8.703597 -4.126918 3.806769
RightLeg 0.954426 -0.000000 -0.000000
RightFoot -12.429549 -14.668811 12.775244
RightToeBase 11.651617 -0.000000 -0.000000
3292
root 2.737029 32.313317 0.300648 -3.912333 -3.361049 0.224442
Spine 3.288316 -6.413047 -0.683256
Head 16.753227 -17.897445 -7.863829
LeftShoulder -8.480183 -2.857690 24.407915
LeftArm -3.678206 39.603361 -102.220028
LeftForeArm 6.129399 -0.000000 14.235194
LeftHand 9.733783 -0.000000 -4.810831
LeftHandThumb1 -26.253704 0.000000 33.147579
RightShoulder -20.881812 -9.554980 -45.841546
RightArm 2.798083 32.039290 23.341046
RightForeArm 21.024028 -0.000000 102.015549
RightHand 26.897215 -0.000000 -8.641975
RightHandThumb1 -24.326973 -0.000000 -32.862282
LeftUpLeg 11.651388 6.430559 2.661822
LeftLeg 1.043240 -0.000000 -0.000000
LeftFoot -17.148809 12.095346 -24.646066
LeftToeBase 16.899113 -0.000000 -0.000000
RightUpLeg 8.672083 -4.073172 3.823631
RightLeg 0.955222 -0.000000 -0.000000
RightFoot -12.402391 -14.648299 12.774478
RightToeBase 11.727328 -0.000000 -0.000000
3293
root 2.736597 32.313528 0.295255 -3.911284 -3.439810 0.219101
Spine 3.299145 -6.366802 -0.725057
Head 16.754452 -17.910037 -7.834702
LeftShoulder -8.485673 -2.841905 24.389234
LeftArm -3.662637 39.657170 -102.243548
LeftForeArm 6.164605 0.000000 14.182841
LeftHand 9.681924 -0.000000 -4.731455
LeftHandThumb1 -26.253704 0.000000 33.147579
RightShoulder -20.848006 -9.677841 -45.860560
RightArm 3.425886 29.851932 22.911578
RightForeArm 21.212160 -0.000000 101.511089
RightHand 26.913935 -0.000000 -8.511895
RightHandThumb1 -24.326973 -0.000000 -32.862282
LeftUpLeg 11.666510 6.491093 2.668676
LeftLeg 1.019895 -0.000000 -0.000000
LeftFoot -17.149014 12.132716 -24.620686
LeftToeBase 16.930629 -0.000000 -0.000000
RightUpLeg 8.636855 -4.142794 3.814870
RightLeg 0.986792 -0.000000 -0.000000
RightFoot -12.355717 -14.540196 12.690009
RightToeBase 11.648126 -0.000000 -0.000000
3294
root 2.735478 32.314217 0.287172 -3.891910 -3.532892 0.191582
Spine 3.297404 -6.308390 -0.741306
Head 16.757574 -17.955451 -7.814749
LeftShoulder -8.490228 -2.833673 24.364390
LeftArm -3.664262 39.673406 -102.268156
LeftForeArm 6.194591 -0.000000 14.179780
LeftHand 9.660132 -0.000000 -4.729440
LeftHandThumb1 -26.253704 0.000000 33.147579
RightShoulder -20.788586 -9.658952 -45.932713
RightArm 3.955505 27.497963 22.377709
RightForeArm 21.185139 -0.000000 101.025357
RightHand 26.811420 -0.000000 -8.147218
RightHandThumb1 -24.326973 -0.000000 -32.862282
LeftUpLeg 11.660701 6.515809 2.688430
LeftLeg 1.013054 -0.000000 -0.000000
LeftFoot -17.141107 12.180932 -24.550900
LeftToeBase 16.736615 -0.000000 -0.000000
RightUpLeg 8.606827 -4.014936 3.857440
RightLeg 0.965132 -0.000000 -0.000000
RightFoot -12.341378 -14.557908 12.757603
RightToeBase 11.734659 -0.000000 -0.000000
3295
root 2.735830 32.314577 0.284691 -3.906222 -3.632388 0.174766
Spine 3.324321 -6.195059 -0.749848
Head 16.719410 -18.043413 -7.811431
LeftShoulder -8.465681 -2.846545 24.329060
LeftArm -3.661854 39.714650 -102.296609
LeftForeArm 6.203208 0.000000 14.141395
LeftHand 9.668764 0.000000 -4.762592
LeftHandThumb1 -26.253704 0.000000 33.147579
RightShoulder -20.791375 -9.786376 -45.992450
RightArm 4.589402 25.218315 21.855834
RightForeArm 21.080585 -0.000000 100.514631
RightHand 26.833084 0.000000 -7.638536
RightHandThumb1 -24.326973 -0.000000 -32.862282
LeftUpLeg 11.691344 6.471482 2.687059
LeftLeg 1.004467 -0.000000 -0.000000
LeftFoot -17.266417 12.282150 -24.737442
LeftToeBase 16.968900 -0.000000 -0.000000
RightUpLeg 8.616114 -3.953180 3.874604
RightLeg 0.946416 -0.000000 -0.000000
RightFoot -12.285731 -14.552846 12.708376
RightToeBase 11.729063 -0.000000 -0.000000
